<mxfile host="app.diagrams.net" modified="2021-03-26T21:31:02.601Z" agent="5.0 (Windows NT 10.0; Win64; x64) AppleWebKit/537.36 (KHTML, like Gecko) Chrome/88.0.4324.150 Safari/537.36 Edg/88.0.705.68" etag="-LC0ASyHt2FggaoXhWo2" version="14.5.1" type="github">
  <diagram id="prtHgNgQTEPvFCAcTncT" name="Page-1">
    <mxGraphModel dx="1422" dy="746" grid="1" gridSize="10" guides="1" tooltips="1" connect="1" arrows="1" fold="1" page="1" pageScale="1" pageWidth="827" pageHeight="1169" math="0" shadow="0">
      <root>
        <mxCell id="0" />
        <mxCell id="1" parent="0" />
        <mxCell id="_dZcv8F1yBC7W_gQsDH9-1" value="&lt;u&gt;empno&lt;/u&gt;" style="rounded=0;whiteSpace=wrap;html=1;" vertex="1" parent="1">
          <mxGeometry x="50" y="80" width="120" height="40" as="geometry" />
        </mxCell>
        <mxCell id="_dZcv8F1yBC7W_gQsDH9-2" value="name" style="rounded=0;whiteSpace=wrap;html=1;" vertex="1" parent="1">
          <mxGeometry x="170" y="80" width="120" height="40" as="geometry" />
        </mxCell>
        <mxCell id="_dZcv8F1yBC7W_gQsDH9-3" value="address" style="rounded=0;whiteSpace=wrap;html=1;" vertex="1" parent="1">
          <mxGeometry x="290" y="80" width="120" height="40" as="geometry" />
        </mxCell>
        <mxCell id="_dZcv8F1yBC7W_gQsDH9-4" value="&lt;b&gt;&lt;font style=&quot;font-size: 14px&quot;&gt;Agent&lt;/font&gt;&lt;/b&gt;" style="text;html=1;strokeColor=none;fillColor=none;align=center;verticalAlign=middle;whiteSpace=wrap;rounded=0;" vertex="1" parent="1">
          <mxGeometry x="50" y="50" width="40" height="20" as="geometry" />
        </mxCell>
        <mxCell id="_dZcv8F1yBC7W_gQsDH9-5" value="&lt;u&gt;code&lt;/u&gt;" style="rounded=0;whiteSpace=wrap;html=1;" vertex="1" parent="1">
          <mxGeometry x="50" y="180" width="120" height="40" as="geometry" />
        </mxCell>
        <mxCell id="_dZcv8F1yBC7W_gQsDH9-6" value="birthday" style="rounded=0;whiteSpace=wrap;html=1;" vertex="1" parent="1">
          <mxGeometry x="170" y="180" width="120" height="40" as="geometry" />
        </mxCell>
        <mxCell id="_dZcv8F1yBC7W_gQsDH9-8" value="&lt;b&gt;&lt;font style=&quot;font-size: 14px&quot;&gt;Line&lt;/font&gt;&lt;/b&gt;" style="text;html=1;strokeColor=none;fillColor=none;align=center;verticalAlign=middle;whiteSpace=wrap;rounded=0;" vertex="1" parent="1">
          <mxGeometry x="50" y="150" width="40" height="20" as="geometry" />
        </mxCell>
        <mxCell id="_dZcv8F1yBC7W_gQsDH9-13" value="&lt;u&gt;name&lt;/u&gt;" style="rounded=0;whiteSpace=wrap;html=1;" vertex="1" parent="1">
          <mxGeometry x="50" y="280" width="120" height="40" as="geometry" />
        </mxCell>
        <mxCell id="_dZcv8F1yBC7W_gQsDH9-14" value="location" style="rounded=0;whiteSpace=wrap;html=1;" vertex="1" parent="1">
          <mxGeometry x="170" y="280" width="120" height="40" as="geometry" />
        </mxCell>
        <mxCell id="_dZcv8F1yBC7W_gQsDH9-15" value="&lt;b&gt;&lt;font style=&quot;font-size: 14px&quot;&gt;Station&lt;/font&gt;&lt;/b&gt;" style="text;html=1;strokeColor=none;fillColor=none;align=center;verticalAlign=middle;whiteSpace=wrap;rounded=0;" vertex="1" parent="1">
          <mxGeometry x="50" y="250" width="60" height="20" as="geometry" />
        </mxCell>
        <mxCell id="_dZcv8F1yBC7W_gQsDH9-33" style="edgeStyle=orthogonalEdgeStyle;rounded=0;orthogonalLoop=1;jettySize=auto;html=1;entryX=0.5;entryY=1;entryDx=0;entryDy=0;" edge="1" parent="1" source="_dZcv8F1yBC7W_gQsDH9-16" target="_dZcv8F1yBC7W_gQsDH9-1">
          <mxGeometry relative="1" as="geometry">
            <Array as="points">
              <mxPoint x="350" y="150" />
              <mxPoint x="110" y="150" />
            </Array>
          </mxGeometry>
        </mxCell>
        <mxCell id="_dZcv8F1yBC7W_gQsDH9-16" value="agent_empno" style="rounded=0;whiteSpace=wrap;html=1;" vertex="1" parent="1">
          <mxGeometry x="290" y="280" width="120" height="40" as="geometry" />
        </mxCell>
        <mxCell id="_dZcv8F1yBC7W_gQsDH9-40" style="edgeStyle=orthogonalEdgeStyle;rounded=0;orthogonalLoop=1;jettySize=auto;html=1;exitX=0.5;exitY=1;exitDx=0;exitDy=0;entryX=0.5;entryY=1;entryDx=0;entryDy=0;" edge="1" parent="1" source="_dZcv8F1yBC7W_gQsDH9-18" target="_dZcv8F1yBC7W_gQsDH9-5">
          <mxGeometry relative="1" as="geometry">
            <Array as="points">
              <mxPoint x="110" y="460" />
              <mxPoint x="710" y="460" />
              <mxPoint x="710" y="270" />
              <mxPoint x="110" y="270" />
            </Array>
          </mxGeometry>
        </mxCell>
        <mxCell id="_dZcv8F1yBC7W_gQsDH9-18" value="&lt;u&gt;compose_line_code&lt;/u&gt;" style="rounded=0;whiteSpace=wrap;html=1;" vertex="1" parent="1">
          <mxGeometry x="50" y="380" width="120" height="40" as="geometry" />
        </mxCell>
        <mxCell id="_dZcv8F1yBC7W_gQsDH9-36" style="edgeStyle=orthogonalEdgeStyle;rounded=0;orthogonalLoop=1;jettySize=auto;html=1;exitX=0.5;exitY=1;exitDx=0;exitDy=0;entryX=0.5;entryY=1;entryDx=0;entryDy=0;" edge="1" parent="1" source="_dZcv8F1yBC7W_gQsDH9-19" target="_dZcv8F1yBC7W_gQsDH9-13">
          <mxGeometry relative="1" as="geometry">
            <Array as="points">
              <mxPoint x="230" y="440" />
              <mxPoint x="680" y="440" />
              <mxPoint x="680" y="340" />
              <mxPoint x="110" y="340" />
            </Array>
          </mxGeometry>
        </mxCell>
        <mxCell id="_dZcv8F1yBC7W_gQsDH9-19" value="&lt;u&gt;start_station&lt;/u&gt;" style="rounded=0;whiteSpace=wrap;html=1;" vertex="1" parent="1">
          <mxGeometry x="170" y="380" width="120" height="40" as="geometry" />
        </mxCell>
        <mxCell id="_dZcv8F1yBC7W_gQsDH9-20" value="&lt;b&gt;&lt;font style=&quot;font-size: 14px&quot;&gt;Section&lt;/font&gt;&lt;/b&gt;" style="text;html=1;strokeColor=none;fillColor=none;align=center;verticalAlign=middle;whiteSpace=wrap;rounded=0;" vertex="1" parent="1">
          <mxGeometry x="50" y="350" width="60" height="20" as="geometry" />
        </mxCell>
        <mxCell id="_dZcv8F1yBC7W_gQsDH9-39" style="edgeStyle=orthogonalEdgeStyle;rounded=0;orthogonalLoop=1;jettySize=auto;html=1;exitX=0.5;exitY=1;exitDx=0;exitDy=0;entryX=0.75;entryY=1;entryDx=0;entryDy=0;" edge="1" parent="1" source="_dZcv8F1yBC7W_gQsDH9-21" target="_dZcv8F1yBC7W_gQsDH9-13">
          <mxGeometry relative="1" as="geometry">
            <Array as="points">
              <mxPoint x="350" y="440" />
              <mxPoint x="680" y="440" />
              <mxPoint x="680" y="340" />
              <mxPoint x="139" y="340" />
            </Array>
          </mxGeometry>
        </mxCell>
        <mxCell id="_dZcv8F1yBC7W_gQsDH9-21" value="&lt;u&gt;end_station&lt;/u&gt;" style="rounded=0;whiteSpace=wrap;html=1;" vertex="1" parent="1">
          <mxGeometry x="290" y="380" width="120" height="40" as="geometry" />
        </mxCell>
        <mxCell id="_dZcv8F1yBC7W_gQsDH9-22" value="length" style="rounded=0;whiteSpace=wrap;html=1;" vertex="1" parent="1">
          <mxGeometry x="410" y="380" width="120" height="40" as="geometry" />
        </mxCell>
        <mxCell id="_dZcv8F1yBC7W_gQsDH9-23" value="order_num" style="rounded=0;whiteSpace=wrap;html=1;" vertex="1" parent="1">
          <mxGeometry x="530" y="380" width="120" height="40" as="geometry" />
        </mxCell>
        <mxCell id="_dZcv8F1yBC7W_gQsDH9-24" value="&lt;u&gt;num&lt;/u&gt;" style="rounded=0;whiteSpace=wrap;html=1;" vertex="1" parent="1">
          <mxGeometry x="50" y="490" width="120" height="40" as="geometry" />
        </mxCell>
        <mxCell id="_dZcv8F1yBC7W_gQsDH9-25" value="type" style="rounded=0;whiteSpace=wrap;html=1;" vertex="1" parent="1">
          <mxGeometry x="170" y="490" width="120" height="40" as="geometry" />
        </mxCell>
        <mxCell id="_dZcv8F1yBC7W_gQsDH9-26" value="&lt;b&gt;&lt;font style=&quot;font-size: 14px&quot;&gt;Train&lt;/font&gt;&lt;/b&gt;" style="text;html=1;strokeColor=none;fillColor=none;align=center;verticalAlign=middle;whiteSpace=wrap;rounded=0;" vertex="1" parent="1">
          <mxGeometry x="50" y="460" width="40" height="20" as="geometry" />
        </mxCell>
        <mxCell id="_dZcv8F1yBC7W_gQsDH9-34" style="edgeStyle=orthogonalEdgeStyle;rounded=0;orthogonalLoop=1;jettySize=auto;html=1;exitX=0.5;exitY=1;exitDx=0;exitDy=0;entryX=0.5;entryY=1;entryDx=0;entryDy=0;" edge="1" parent="1" source="_dZcv8F1yBC7W_gQsDH9-27" target="_dZcv8F1yBC7W_gQsDH9-5">
          <mxGeometry relative="1" as="geometry">
            <Array as="points">
              <mxPoint x="110" y="650" />
              <mxPoint x="750" y="650" />
              <mxPoint x="750" y="250" />
              <mxPoint x="110" y="250" />
            </Array>
          </mxGeometry>
        </mxCell>
        <mxCell id="_dZcv8F1yBC7W_gQsDH9-27" value="&lt;u&gt;line_code&lt;/u&gt;" style="rounded=0;whiteSpace=wrap;html=1;" vertex="1" parent="1">
          <mxGeometry x="50" y="590" width="120" height="40" as="geometry" />
        </mxCell>
        <mxCell id="_dZcv8F1yBC7W_gQsDH9-28" value="&lt;u&gt;date&lt;/u&gt;" style="rounded=0;whiteSpace=wrap;html=1;" vertex="1" parent="1">
          <mxGeometry x="170" y="590" width="120" height="40" as="geometry" />
        </mxCell>
        <mxCell id="_dZcv8F1yBC7W_gQsDH9-29" value="&lt;span style=&quot;font-size: 14px&quot;&gt;&lt;b&gt;Travel&lt;/b&gt;&lt;/span&gt;" style="text;html=1;strokeColor=none;fillColor=none;align=center;verticalAlign=middle;whiteSpace=wrap;rounded=0;" vertex="1" parent="1">
          <mxGeometry x="50" y="560" width="60" height="20" as="geometry" />
        </mxCell>
        <mxCell id="_dZcv8F1yBC7W_gQsDH9-30" value="&lt;u&gt;time&lt;/u&gt;" style="rounded=0;whiteSpace=wrap;html=1;" vertex="1" parent="1">
          <mxGeometry x="290" y="590" width="120" height="40" as="geometry" />
        </mxCell>
        <mxCell id="_dZcv8F1yBC7W_gQsDH9-41" style="edgeStyle=orthogonalEdgeStyle;rounded=0;orthogonalLoop=1;jettySize=auto;html=1;exitX=0.5;exitY=1;exitDx=0;exitDy=0;entryX=0.5;entryY=1;entryDx=0;entryDy=0;" edge="1" parent="1" source="_dZcv8F1yBC7W_gQsDH9-31" target="_dZcv8F1yBC7W_gQsDH9-24">
          <mxGeometry relative="1" as="geometry">
            <Array as="points">
              <mxPoint x="470" y="670" />
              <mxPoint x="680" y="670" />
              <mxPoint x="680" y="550" />
              <mxPoint x="110" y="550" />
            </Array>
          </mxGeometry>
        </mxCell>
        <mxCell id="_dZcv8F1yBC7W_gQsDH9-31" value="train_num" style="rounded=0;whiteSpace=wrap;html=1;" vertex="1" parent="1">
          <mxGeometry x="410" y="590" width="120" height="40" as="geometry" />
        </mxCell>
        <mxCell id="_dZcv8F1yBC7W_gQsDH9-42" style="edgeStyle=orthogonalEdgeStyle;rounded=0;orthogonalLoop=1;jettySize=auto;html=1;exitX=0.5;exitY=1;exitDx=0;exitDy=0;" edge="1" parent="1" source="_dZcv8F1yBC7W_gQsDH9-32">
          <mxGeometry relative="1" as="geometry">
            <mxPoint x="110" y="120" as="targetPoint" />
            <Array as="points">
              <mxPoint x="590" y="700" />
              <mxPoint x="790" y="700" />
              <mxPoint x="790" y="140" />
              <mxPoint x="110" y="140" />
            </Array>
          </mxGeometry>
        </mxCell>
        <mxCell id="_dZcv8F1yBC7W_gQsDH9-32" value="driver" style="rounded=0;whiteSpace=wrap;html=1;" vertex="1" parent="1">
          <mxGeometry x="530" y="590" width="120" height="40" as="geometry" />
        </mxCell>
      </root>
    </mxGraphModel>
  </diagram>
</mxfile>
